HIERARCHY
ROOT Hips
{
	OFFSET 0.00000 0.00000 0.00000
	CHANNELS 6 Xposition Yposition Zposition Zrotation Yrotation Xrotation 
	JOINT LHipJoint
	{
		OFFSET 0 0 0
		CHANNELS 3 Zrotation Yrotation Xrotation
		JOINT LeftHip
		{
			OFFSET 1.46561 -1.72757 0.83774
			CHANNELS 3 Zrotation Yrotation Xrotation
			JOINT LeftKnee
			{
				OFFSET 2.48915 -6.83890 0.00000
				CHANNELS 3 Zrotation Yrotation Xrotation
				JOINT LeftAnkle
				{
					OFFSET 2.60555 -7.15868 0.00000
					CHANNELS 3 Zrotation Yrotation Xrotation
					JOINT LeftToe
					{
						OFFSET 0.19248 -0.52884 2.26738
						CHANNELS 3 Zrotation Yrotation Xrotation
						End Site
						{
							OFFSET 0.00000 -0.00000 1.17015
						}
					}
				}
			}
		}
	}
	JOINT RHipJoint
	{
		OFFSET 0 0 0
		CHANNELS 3 Zrotation Yrotation Xrotation
		JOINT RightHip
		{
			OFFSET -1.46918 -1.72757 0.83774
			CHANNELS 3 Zrotation Yrotation Xrotation
			JOINT RightKnee
			{
				OFFSET -2.49034 -6.84216 0.00000
				CHANNELS 3 Zrotation Yrotation Xrotation
				JOINT RightAnkle
				{
					OFFSET -2.65971 -7.30750 0.00000
					CHANNELS 3 Zrotation Yrotation Xrotation
					JOINT RightToe
					{
						OFFSET -0.19227 -0.52827 2.30785
						CHANNELS 3 Zrotation Yrotation Xrotation
						End Site
						{
							OFFSET -0.00000 -0.00000 1.18972
						}
					}
				}
			}
		}
	}
	JOINT lowerback
	{
		OFFSET 0 0 0
		CHANNELS 3 Zrotation Yrotation Xrotation
		JOINT Chest
		{
			OFFSET 0.02432 2.19909 -0.28000
			CHANNELS 3 Zrotation Yrotation Xrotation
			JOINT Chest2
			{
				OFFSET 0.03714 2.21816 -0.15261
				CHANNELS 3 Zrotation Yrotation Xrotation
				JOINT lowerneck
				{
					OFFSET 0 0 0
					CHANNELS 3 Zrotation Yrotation Xrotation
					JOINT Neck
					{
						OFFSET -0.01896 1.56165 0.21681
						CHANNELS 3 Zrotation Yrotation Xrotation
						JOINT Head
						{
							OFFSET 0.02744 1.56009 0.06764
							CHANNELS 3 Zrotation Yrotation Xrotation
							End Site
							{
								OFFSET 0.01212 1.60574 0.00298
							}
						}
					}
				}
				JOINT LeftCollar
				{
					OFFSET 0 0 0
					CHANNELS 3 Zrotation Yrotation Xrotation
					JOINT LeftShoulder
					{
						OFFSET 3.05595 1.48048 -0.60794
CHANNELS 3 Zrotation Xrotation Yrotation
						JOINT LeftElbow
						{
OFFSET 0 -5.206070 -0.000000
CHANNELS 3 Zrotation Xrotation Yrotation
							JOINT LeftWrist
							{
OFFSET 0 -3.399610 0.000000
CHANNELS 3 Zrotation Xrotation Yrotation
								JOINT lhand
								{
									OFFSET 0 0 0
CHANNELS 3 Zrotation Xrotation Yrotation
									JOINT LFingers
									{
OFFSET 0 -0.519690 0.000000
CHANNELS 3 Zrotation Xrotation Yrotation
										End Site
										{
OFFSET 0 -0.418990 0.000000
										}
									}
								}
								JOINT LThumb
								{
OFFSET 0 0.000000 0.000000
CHANNELS 3 Zrotation Xrotation Yrotation
									End Site
									{
OFFSET 0 -0.425390 0.425390
									}
								}
							}
						}
					}
				}
				JOINT RightCollar
				{
					OFFSET 0 0 0
					CHANNELS 3 Zrotation Yrotation Xrotation
					JOINT RightShoulder
					{
						OFFSET -2.99052 1.57608 -0.69102
CHANNELS 3 Zrotation Xrotation Yrotation
						JOINT RightElbow
						{
OFFSET 0 -5.322140 0.000000
CHANNELS 3 Zrotation Xrotation Yrotation
							JOINT RightWrist
							{
OFFSET 0 -3.512080 0.000000
CHANNELS 3 Zrotation Xrotation Yrotation
								JOINT rhand
								{
									OFFSET 0 0 0
CHANNELS 3 Zrotation Xrotation Yrotation
									JOINT RFingers
									{
OFFSET 0 -0.586680 0.000000
CHANNELS 3 Zrotation Xrotation Yrotation
										End Site
										{
OFFSET 0 -0.473000 0.000000
										}
									}
								}
								JOINT RThumb
								{
OFFSET 0 0.000000 0.000000
CHANNELS 3 Zrotation Xrotation Yrotation
									End Site
									{
OFFSET 0 -0.480220 0.480220
									}
								}
							}
						}
					}
				}
			}
		}
	}
}
MOTION
Frames: 6
Frame Time: 0.008333333333333333
0.344453 17.325154 -0.056607 -1.561140 0.994829 3.493615 0.000000 0.000000 0.000000 -14.982056 -5.459729 -33.178576 1.418893 7.532962 21.304459 0.007177 2.501244 -4.014649 0.725054 -5.440612 -15.169813 0.000000 0.000000 0.000000 18.310266 6.188047 -36.448548 -1.901942 -8.658618 24.733142 -0.332081 -1.975384 10.379369 -0.080650 -1.831955 5.041509 -1.178674 -0.040599 8.161013 1.942059 -0.134207 6.074098 2.676361 -0.140881 1.721465 -1.044393 0.039422 -11.219365 0.798192 0.068791 27.749001 0.475704 0.018361 10.758909 0.000000 0.000000 0.000000 1.201610 -13.783782 -5.460342 4.708483 -8.091898 0.333209 25.624631 2.822386 6.730104 0.000000 0.000000 0.000000 -7.125000 0.000000 0.000000 -0.835141 22.523607 -0.451571 0.000000 0.000000 0.000000 -3.081775 -7.695159 8.034570 -13.071074 -21.391303 -2.479213 -22.601622 39.361753 23.292013 0.000000 0.000000 0.000000 7.125000 0.000000 0.000000 6.996028 54.844222 -1.697769
0.350282 17.071747 0.168236 -1.634812 0.909335 2.471761 0.000000 0.000000 0.000000 -14.672482 -5.956987 -33.292834 1.768678 8.365752 23.831174 0.018864 2.488842 -4.608816 0.918957 -6.106961 -17.095375 0.000000 0.000000 0.000000 18.463601 6.212775 -36.275984 -2.238055 -9.344535 26.879595 -0.213222 -0.041589 8.704639 -0.137442 -2.388265 6.580150 -1.114200 -0.014235 8.526846 1.944356 -0.096367 6.078710 2.641113 -0.118161 1.522851 -1.049302 0.006763 -11.181073 0.848674 0.006956 28.276590 0.489422 -0.005319 10.950804 0.000000 0.000000 0.000000 1.112897 -13.751561 -5.015927 4.379959 -7.535087 0.288604 25.994689 3.223368 6.423614 0.000000 0.000000 0.000000 -7.125000 0.000000 0.000000 -0.552536 22.840377 -0.294781 0.000000 0.000000 0.000000 -3.025544 -7.644032 7.269344 -12.714930 -20.868024 -2.350806 -22.649224 40.213493 23.351884 0.000000 0.000000 0.000000 7.125000 0.000000 0.000000 6.968665 54.915942 -1.703290
0.354556 16.820694 0.368925 -1.647899 0.848927 1.394687 0.000000 0.000000 0.000000 -14.365294 -6.596654 -33.794261 2.300670 9.463371 27.257909 0.019970 2.385366 -4.548111 1.013181 -6.404200 -17.961726 0.000000 0.000000 0.000000 18.456551 6.484241 -36.412659 -2.773153 -10.316315 30.009302 -0.082531 1.524365 6.193849 -0.233328 -3.106289 8.574977 -1.117056 0.007469 9.138045 1.925164 -0.068728 6.061884 2.622904 -0.100494 1.168693 -1.043310 -0.024638 -11.193156 0.909340 -0.058676 28.757556 0.504489 -0.028032 11.137003 0.000000 0.000000 0.000000 1.049914 -13.710496 -4.574342 4.150110 -7.144598 0.259185 26.361296 3.458074 6.188023 0.000000 0.000000 0.000000 -7.125000 0.000000 0.000000 -0.274022 23.080140 -0.144675 0.000000 0.000000 0.000000 -2.943881 -7.682244 6.492207 -12.383595 -20.377284 -2.234140 -22.807468 41.153720 23.444348 0.000000 0.000000 0.000000 7.125000 0.000000 0.000000 6.837994 55.044026 -1.692381
0.355939 16.578652 0.540327 -1.590914 0.819637 0.336691 0.000000 0.000000 0.000000 -14.036894 -7.372806 -34.708513 3.033074 10.743650 31.424882 0.018284 2.093154 -4.146377 0.911633 -6.083506 -17.026940 0.000000 0.000000 0.000000 18.233615 7.084142 -36.951037 -3.533414 -11.507987 34.017860 -0.001840 2.295378 3.327368 -0.393125 -4.021136 11.136707 -1.206043 0.033175 9.956489 1.887418 -0.043397 6.034799 2.634883 -0.084553 0.692555 -1.003921 -0.055728 -11.280823 0.936757 -0.121432 29.148811 0.501759 -0.049295 11.305830 0.000000 0.000000 0.000000 1.001567 -13.726545 -4.126431 4.023815 -6.929696 0.243711 26.727739 3.484488 6.069236 0.000000 0.000000 0.000000 -7.125000 0.000000 0.000000 0.000882 23.190866 0.000433 0.000000 0.000000 0.000000 -2.831285 -7.874442 5.674221 -12.075938 -19.918294 -2.128106 -23.102976 42.232846 23.594111 0.000000 0.000000 0.000000 7.125000 0.000000 0.000000 6.584510 55.259832 -1.663784
0.353368 16.337113 0.689009 -1.492324 0.753447 -0.606023 0.000000 0.000000 0.000000 -13.636693 -8.216610 -36.015255 3.946248 12.081924 36.031348 0.016696 1.743080 -3.700649 0.622932 -5.043467 -14.034148 0.000000 0.000000 0.000000 17.823149 8.065313 -37.932232 -4.501711 -12.793531 38.610093 0.016186 2.351466 0.612009 -0.602221 -4.962028 13.801241 -1.369055 0.089666 10.847055 1.842365 0.013066 6.026075 2.678077 -0.054287 0.196466 -0.942598 -0.086807 -11.462929 0.930951 -0.178538 29.394280 0.482990 -0.069004 11.438525 0.000000 0.000000 0.000000 0.956065 -13.872427 -3.688166 3.996006 -6.882298 0.240368 27.170311 3.250331 6.152339 0.000000 0.000000 0.000000 -7.125000 0.000000 0.000000 0.323597 23.071363 0.170937 0.000000 0.000000 0.000000 -2.691682 -8.269159 4.863084 -11.807627 -19.515471 -2.037663 -23.517409 43.427682 23.810616 0.000000 0.000000 0.000000 7.125000 0.000000 0.000000 6.228767 55.570968 -1.620386
0.347733 16.097713 0.824473 -1.344531 0.580484 -1.431298 0.000000 0.000000 0.000000 -13.213315 -8.961626 -37.537425 4.971473 13.344388 40.684265 0.018546 1.433167 -3.509402 0.324706 -3.642294 -10.074950 0.000000 0.000000 0.000000 17.263355 9.303004 -39.212354 -5.596435 -14.018513 43.325755 -0.002635 2.079191 -1.598154 -0.784565 -5.651581 15.777510 -1.615283 0.200401 11.734185 1.793551 0.128434 6.059789 2.756684 0.003285 -0.254544 -0.878019 -0.111493 -11.683699 0.888991 -0.215078 29.439654 0.452058 -0.082986 11.501537 0.000000 0.000000 0.000000 0.900209 -14.134739 -3.256508 4.069465 -7.007392 0.249280 27.643724 2.783702 6.447638 0.000000 0.000000 0.000000 -7.125000 0.000000 0.000000 0.658054 22.709645 0.353181 0.000000 0.000000 0.000000 -2.539393 -8.823042 4.131022 -11.601551 -19.204335 -1.969288 -23.976437 44.680198 24.074445 0.000000 0.000000 0.000000 7.125000 0.000000 0.000000 5.840722 55.942472 -1.571558
